<?xml version="1.0" standalone="no"?>
<!DOCTYPE svg PUBLIC "-//W3C//DTD SVG 20010904//EN"
 "http://www.w3.org/TR/2001/REC-SVG-20010904/DTD/svg10.dtd">
<svg version="1.0" xmlns="http://www.w3.org/2000/svg"
 width="1200.000000pt" height="630.000000pt" viewBox="0 0 1200.000000 630.000000"
 preserveAspectRatio="xMidYMid meet">
<metadata>
Created by potrace 1.16, written by Peter Selinger 2001-2019
</metadata>
<g transform="translate(0.000000,630.000000) scale(0.100000,-0.100000)"
fill="#000000" stroke="none">
<path d="M868 5631 c-155 -50 -281 -175 -328 -328 -20 -64 -20 -90 -20 -2153
0 -2063 0 -2089 20 -2153 11 -36 38 -92 61 -126 44 -67 116 -134 132 -124 6 3
7 2 4 -4 -8 -13 72 -56 142 -77 49 -14 260 -16 2140 -16 1897 0 2090 1 2143
16 32 9 58 21 58 26 0 5 4 7 9 4 15 -9 127 72 171 122 41 48 93 144 107 197 4
17 9 504 10 1083 l3 1052 -1244 0 c-986 0 -1245 -3 -1249 -12 -3 -7 -6 555 -6
1250 l-1 1262 -1047 -1 c-986 0 -1051 -1 -1105 -18z m847 -300 c49 -22 93 -65
111 -108 11 -25 14 -116 14 -420 0 -213 3 -431 7 -483 l6 -95 50 -40 c138
-111 184 -318 108 -481 -76 -163 -227 -253 -403 -241 -181 12 -325 135 -374
320 -19 71 -17 120 5 195 27 86 61 141 126 201 l57 51 3 484 c4 465 5 486 24
525 21 41 67 82 111 100 40 16 112 12 155 -8z m593 -263 l-3 -43 -157 -3 -158
-3 0 46 0 45 161 0 160 0 -3 -42z m0 -350 l-3 -43 -157 -3 -158 -3 0 46 0 45
161 0 160 0 -3 -42z m-133 -170 c0 -21 -3 -38 -7 -38 -5 0 -46 0 -93 0 l-85 0
0 40 0 41 93 -3 92 -3 0 -37z m135 -178 l0 -40 -160 0 -160 0 0 40 0 40 160 0
160 0 0 -40z m2755 -1675 c49 -34 170 -154 174 -171 1 -2 13 -30 28 -61 37
-82 52 -153 52 -264 1 -103 -20 -194 -62 -274 -26 -49 -92 -131 -132 -165 -16
-14 -38 -34 -49 -45 -11 -11 -27 -20 -35 -22 -8 -1 -17 -6 -20 -11 -3 -4 -40
-21 -81 -37 -60 -22 -97 -29 -186 -33 l-111 -4 -2 -80 c-5 -181 -87 -367 -212
-477 -21 -18 -36 -37 -33 -42 3 -5 -1 -6 -9 -3 -8 3 -18 0 -23 -7 -5 -8 -3
-10 6 -4 9 5 11 4 6 -4 -4 -6 -11 -9 -16 -6 -5 3 -27 -6 -49 -20 -79 -49 -186
-78 -306 -82 -96 -4 -121 -1 -195 21 -227 70 -399 249 -456 476 -21 84 -15
282 11 355 42 118 95 196 192 285 72 66 112 91 188 119 33 12 67 24 75 28 41
16 190 26 251 16 l57 -10 7 76 c14 149 75 281 180 384 17 16 29 34 27 39 -1 5
2 7 7 4 5 -3 32 9 59 28 88 59 184 90 297 96 94 5 106 3 200 -28 64 -22 121
-49 160 -77z m-3127 2 c29 -15 70 -43 91 -62 21 -19 41 -32 45 -30 3 3 4 2 1
-2 -3 -3 1 -13 9 -22 27 -30 65 -116 77 -170 14 -68 6 -158 -21 -218 -11 -25
-20 -47 -20 -49 0 -1 69 -4 154 -6 154 -3 155 -3 198 -33 24 -17 53 -49 64
-70 12 -22 42 -123 67 -225 25 -102 71 -286 101 -408 31 -123 56 -242 56 -265
0 -55 -34 -112 -89 -154 l-43 -33 -874 0 c-481 0 -873 4 -870 8 3 5 -8 16 -25
26 -36 21 -89 110 -89 150 0 16 5 45 10 65 6 20 53 208 105 419 52 210 101
395 109 410 20 39 66 83 103 98 22 10 77 14 177 14 l144 0 -21 43 c-30 61 -35
196 -11 273 35 112 136 216 249 257 39 13 73 17 150 14 85 -3 108 -7 153 -30z"/>
<path d="M1584 5250 c-12 -4 -31 -21 -43 -36 -21 -26 -21 -31 -21 -530 l0
-503 -52 -37 c-101 -70 -150 -160 -150 -276 0 -123 75 -238 190 -291 73 -34
189 -31 264 6 114 56 184 170 182 297 -2 109 -49 192 -145 260 l-59 41 0 502
c0 551 2 530 -60 562 -32 16 -73 18 -106 5z m106 -874 l0 -244 34 -12 c49 -16
121 -83 147 -138 48 -99 20 -237 -63 -307 -58 -49 -113 -68 -187 -63 -76 5
-122 24 -173 73 -49 48 -71 98 -76 173 -8 113 55 214 161 258 l47 19 0 243 0
242 55 0 55 0 0 -244z"/>
<path d="M1523 4054 c-24 -14 -54 -44 -67 -67 -28 -48 -36 -118 -17 -141 29
-35 81 -7 81 43 0 38 31 75 79 94 51 21 65 52 35 81 -22 23 -63 19 -111 -10z"/>
<path d="M4641 2659 c-25 -5 -77 -24 -115 -42 -92 -44 -165 -118 -213 -214
-33 -67 -37 -83 -41 -177 l-4 -103 57 -32 c85 -48 182 -152 235 -251 42 -79
48 -85 85 -93 60 -13 183 -2 247 23 219 82 343 324 283 553 -21 82 -47 127
-111 196 -107 116 -271 170 -423 140z m249 -121 l52 -12 -6 -37 c-11 -67 -24
-91 -43 -81 -62 32 -152 20 -195 -25 -55 -60 -51 -63 82 -63 l120 0 0 -40 0
-40 -130 0 c-109 0 -130 -2 -130 -15 0 -13 21 -15 130 -15 l130 0 0 -40 0 -40
-120 0 c-66 0 -120 -4 -120 -9 0 -25 50 -77 85 -89 38 -13 111 -11 161 3 19 6
22 1 32 -47 6 -29 7 -56 4 -60 -4 -4 -36 -15 -71 -24 -154 -39 -309 38 -359
178 -14 42 -20 48 -44 48 -24 0 -28 4 -28 30 0 17 -1 33 -2 38 -2 4 9 8 25 10
35 4 37 32 2 32 -22 0 -25 4 -25 40 0 38 2 40 30 40 25 0 32 6 50 47 66 149
199 211 370 171z"/>
<path d="M3830 2027 c-222 -76 -360 -265 -360 -492 0 -273 193 -485 471 -519
139 -17 309 46 416 155 194 196 199 512 11 714 -104 112 -229 165 -388 165
-61 0 -103 -7 -150 -23z m220 -162 c0 -42 2 -46 40 -65 46 -24 90 -83 90 -122
0 -27 -2 -28 -49 -28 -46 0 -49 2 -54 30 -7 32 -49 60 -92 60 -41 0 -94 -27
-106 -54 -20 -44 7 -70 113 -105 145 -48 187 -83 203 -168 11 -58 -28 -122
-92 -153 -52 -24 -53 -26 -53 -67 l0 -43 -65 0 -65 0 0 44 c0 40 -3 45 -30 55
-51 17 -91 52 -111 95 -28 61 -26 66 30 66 46 0 50 -2 60 -30 14 -40 68 -64
133 -58 57 6 88 30 88 70 0 43 -39 72 -131 98 -134 39 -198 104 -186 192 7 53
38 90 96 118 50 23 51 24 51 67 l0 43 65 0 65 0 0 -45z"/>
<path d="M1722 2520 c-87 -20 -142 -93 -142 -185 0 -81 32 -134 102 -169 76
-38 147 -31 209 21 118 100 75 291 -76 332 -44 12 -47 12 -93 1z"/>
<path d="M1995 1843 c-38 -8 -75 -25 -75 -35 0 -5 -4 -7 -9 -4 -12 8 -45 -31
-73 -84 -21 -40 -23 -58 -23 -175 0 -107 3 -136 19 -165 26 -49 64 -88 111
-113 84 -45 262 -19 324 47 20 21 21 32 19 126 l-3 103 -107 1 -106 1 -4 -47
-3 -47 45 -3 45 -3 3 -42 c3 -41 2 -42 -35 -52 -21 -6 -51 -11 -67 -11 -42 0
-90 41 -104 88 -15 48 -16 184 -2 233 29 103 167 119 202 24 l12 -36 58 3 c51
2 58 5 58 23 -1 34 -36 100 -68 127 -44 37 -147 57 -217 41z"/>
<path d="M1275 1545 l0 -295 63 0 62 0 0 125 0 125 27 6 c14 4 33 3 41 -2 8
-5 44 -65 80 -132 l65 -122 79 0 c61 0 77 3 71 13 -195 315 -193 311 -177 335
8 12 12 28 8 34 -4 6 -3 8 3 5 7 -4 42 38 83 98 l72 106 -82 -3 -82 -3 -65
-118 c-60 -109 -67 -118 -92 -115 l-26 3 -3 118 -3 117 -62 0 -62 0 0 -295z"/>
<path d="M7802 4394 c-18 -12 -22 -25 -22 -68 0 -70 17 -86 93 -86 74 0 97 21
97 85 0 63 -24 85 -93 85 -31 0 -61 -6 -75 -16z"/>
<path d="M6192 4361 c-11 -6 -13 -69 -10 -322 l3 -314 33 -67 c60 -122 148
-163 336 -156 91 3 120 8 161 28 69 34 119 87 144 155 20 54 21 71 19 368 l-3
312 -68 3 c-42 2 -74 -2 -83 -9 -11 -9 -14 -64 -14 -298 0 -278 -1 -288 -22
-331 -35 -68 -66 -85 -153 -85 -87 0 -118 17 -152 85 -22 43 -23 53 -23 330 0
209 -3 289 -12 298 -14 14 -136 16 -156 3z"/>
<path d="M8173 4300 c-21 -8 -23 -16 -23 -79 l0 -70 -42 -3 -43 -3 0 -65 0
-65 41 -3 42 -3 4 -192 c4 -175 6 -196 27 -235 29 -57 81 -82 171 -82 36 0 76
6 89 13 30 15 45 57 36 103 -6 35 -6 35 -50 29 -94 -15 -105 9 -105 216 l0
148 72 3 c72 3 72 3 82 36 5 20 5 44 0 65 -10 32 -10 32 -82 35 l-72 3 0 73
c0 68 -2 74 -22 80 -33 8 -99 6 -125 -4z"/>
<path d="M7315 4142 c-22 -10 -54 -31 -71 -45 -18 -15 -34 -27 -37 -27 -3 0
-7 17 -9 38 l-3 37 -65 0 -65 0 0 -315 0 -315 80 0 80 0 3 208 2 207 41 40
c63 61 127 63 166 3 15 -23 19 -57 23 -243 l5 -215 77 -3 c76 -3 78 -2 84 23
4 15 5 125 2 244 -4 212 -5 220 -31 272 -37 76 -80 103 -171 107 -53 2 -81 -2
-111 -16z"/>
<path d="M7802 4142 c-9 -7 -12 -77 -10 -318 l3 -309 80 0 80 0 3 309 c2 241
-1 311 -10 318 -7 4 -40 8 -73 8 -33 0 -66 -4 -73 -8z"/>
<path d="M6409 2731 c-31 -10 -77 -32 -103 -50 -152 -105 -209 -382 -124 -608
29 -78 103 -152 183 -183 121 -46 321 -25 386 40 24 23 29 37 29 77 0 78 -8
82 -82 45 -113 -58 -214 -52 -288 14 -56 51 -75 113 -75 244 0 97 2 110 30
165 42 82 89 118 164 123 65 5 116 -9 174 -45 56 -35 67 -26 67 51 0 80 -15
98 -108 126 -79 25 -178 25 -253 1z"/>
<path d="M10195 2672 c-30 -7 -30 -8 -33 -79 l-3 -72 -42 -3 -42 -3 0 -65 0
-65 42 -3 41 -3 4 -192 c3 -212 12 -248 71 -291 38 -28 185 -36 221 -13 26 17
39 62 30 105 -6 28 -8 29 -67 28 -84 -1 -87 6 -87 206 l0 157 72 3 c72 3 72 3
80 36 5 17 5 47 0 65 -8 32 -8 32 -80 35 l-72 3 0 69 c0 38 -3 71 -7 73 -16
10 -99 15 -128 9z"/>
<path d="M7064 2517 c-94 -31 -161 -103 -190 -205 -22 -76 -16 -230 12 -292
54 -120 187 -177 348 -151 113 19 184 71 228 166 20 43 23 66 23 170 0 104 -3
127 -23 170 -49 106 -119 146 -262 152 -61 2 -109 -2 -136 -10z m195 -145 c51
-37 76 -173 50 -267 -6 -21 -26 -54 -44 -72 -30 -30 -39 -33 -90 -33 -51 0
-60 3 -90 33 -18 18 -38 51 -44 72 -23 85 -7 199 36 247 44 50 129 59 182 20z"/>
<path d="M7882 2511 c-23 -11 -58 -32 -77 -47 l-35 -26 0 29 c0 16 -5 34 -12
41 -16 16 -110 16 -126 0 -9 -9 -12 -93 -12 -315 l0 -303 26 -10 c33 -13 100
-13 125 0 18 10 19 23 19 213 l0 203 38 37 c63 62 126 67 166 14 20 -26 21
-44 24 -243 l3 -215 25 -9 c33 -13 86 -13 119 0 l27 10 -4 243 c-3 231 -4 244
-27 290 -33 68 -83 99 -169 104 -52 3 -76 -1 -110 -16z"/>
<path d="M9145 2521 c-81 -21 -162 -97 -189 -178 -24 -69 -30 -162 -17 -238
25 -144 89 -209 232 -235 109 -20 287 9 309 50 12 23 13 80 1 99 -7 11 -17 11
-57 -3 -76 -27 -201 -32 -244 -9 -40 21 -68 65 -72 113 l-3 35 200 5 200 5 3
75 c6 127 -33 207 -123 257 -41 22 -65 27 -130 29 -44 2 -93 0 -110 -5z m153
-127 c29 -20 52 -66 52 -104 l0 -31 -122 3 -123 3 3 25 c4 45 25 82 56 101 38
23 104 25 134 3z"/>
<path d="M9894 2520 c-12 -5 -40 -28 -62 -51 l-41 -42 -3 44 -3 44 -44 3 c-25
2 -55 1 -68 -3 l-23 -5 0 -310 c0 -296 1 -310 19 -320 25 -13 92 -13 125 0
l26 10 0 196 0 197 45 44 c43 44 45 45 102 41 l58 -3 3 70 c2 57 0 72 -14 82
-20 15 -88 16 -120 3z"/>
<path d="M10750 2515 c-63 -20 -124 -75 -157 -143 -26 -54 -28 -65 -28 -187 0
-122 2 -133 27 -182 44 -84 115 -125 236 -139 69 -7 193 10 242 34 32 16 35
21 38 66 2 27 -1 53 -6 58 -6 6 -35 2 -77 -11 -83 -26 -177 -27 -225 -3 -40
19 -70 71 -70 120 l0 32 195 0 c229 0 222 -4 212 113 -7 85 -44 166 -92 203
-68 52 -198 69 -295 39z m181 -133 c29 -26 56 -102 41 -117 -3 -3 -59 -5 -124
-5 l-118 0 0 25 c0 103 126 164 201 97z"/>
<path d="M11505 2511 c-17 -10 -43 -33 -58 -50 l-27 -33 0 34 c0 46 -15 58
-71 58 -85 0 -79 26 -79 -321 l0 -309 26 -10 c14 -6 40 -10 59 -10 19 0 45 4
59 10 l26 10 0 193 0 194 44 48 c44 47 44 47 103 43 l58 -3 3 70 c2 57 0 72
-14 82 -26 19 -94 16 -129 -6z"/>
<path d="M8271 2506 c-10 -12 7 -74 84 -308 54 -161 103 -300 111 -308 17 -17
134 -26 184 -13 l34 9 98 295 c54 161 98 301 98 310 0 9 -7 20 -16 23 -29 11
-131 6 -141 -6 -5 -7 -38 -107 -73 -223 -35 -115 -67 -214 -71 -218 -6 -8 -28
58 -109 323 -18 58 -37 111 -43 118 -14 18 -141 16 -156 -2z"/>
</g>
</svg>
